<?xml version="1.0" standalone="no"?>
<!DOCTYPE svg PUBLIC "-//W3C//DTD SVG 20010904//EN"
 "http://www.w3.org/TR/2001/REC-SVG-20010904/DTD/svg10.dtd">
<svg version="1.0" xmlns="http://www.w3.org/2000/svg"
 width="742.000000pt" height="826.000000pt" viewBox="0 0 742.000000 826.000000"
 preserveAspectRatio="xMidYMid meet">

<g transform="translate(0.000000,826.000000) scale(0.100000,-0.100000)"
fill="#000000" stroke="none">
<path d="M4929 8217 c-35 -23 -107 -74 -159 -112 -52 -38 -158 -113 -235 -167
-77 -55 -163 -116 -191 -136 -27 -20 -115 -83 -195 -139 -79 -56 -217 -155
-306 -220 -190 -138 -407 -293 -548 -392 -55 -39 -137 -98 -182 -131 -45 -33
-84 -60 -87 -60 -3 0 -6 178 -6 395 l0 395 -480 0 -480 0 0 -740 0 -739 -52
-39 c-29 -21 -82 -59 -118 -83 -36 -25 -132 -94 -215 -154 -297 -215 -521
-377 -575 -414 -69 -47 -295 -209 -510 -365 -242 -175 -425 -308 -513 -372
l-77 -57 0 -2343 0 -2344 1205 0 1205 0 0 1814 0 1814 47 41 c50 43 91 72 433
315 113 80 277 197 365 261 88 64 199 144 248 178 48 34 102 72 120 85 216
155 512 366 562 402 35 25 115 81 177 126 62 44 151 107 198 140 47 32 108 76
136 99 109 86 281 203 302 204 9 1 12 -386 12 -1904 l0 -1905 -800 0 -800 0 0
-835 0 -835 2005 0 2005 0 0 1733 0 1733 -47 45 c-27 25 -64 58 -83 73 -19 16
-64 54 -100 86 -36 31 -103 88 -150 126 -47 37 -135 111 -196 164 -61 52 -155
131 -209 175 -53 44 -176 148 -273 230 -98 83 -280 236 -406 340 -126 105
-255 213 -286 240 -31 28 -105 91 -165 140 -59 50 -135 114 -169 143 -34 29
-116 98 -183 154 -68 55 -123 105 -123 110 0 5 -4 6 -10 3 -7 -4 -10 458 -10
1379 0 776 -4 1386 -9 1386 -4 0 -37 -19 -72 -43z"/>
</g>
</svg>
